<svg xmlns="http://www.w3.org/2000/svg" viewBox="0 0 64 64"><g id="Layer_14" data-name="Layer 14"><path d="M60.57,52.77,34.75,8.05a3.19,3.19,0,0,0-5.5,0L3.43,52.77a3.18,3.18,0,0,0,2.75,4.77H57.82A3.2,3.2,0,0,0,60.57,52.77ZM58.84,55a1.15,1.15,0,0,1-1,.59H6.18a1.17,1.17,0,0,1-1-1.77L31,9.05a1.18,1.18,0,0,1,2,0L58.84,53.77A1.16,1.16,0,0,1,58.84,55Z" id="id_101" style="fill: rgb(175, 255, 25);"></path><path d="M32.45,16h-.9a3.13,3.13,0,0,0-3.13,3.12V38.37a3.13,3.13,0,0,0,3.13,3.12h.9a3.13,3.13,0,0,0,3.13-3.12V19.14A3.13,3.13,0,0,0,32.45,16Zm1.13,22.35a1.12,1.12,0,0,1-1.13,1.12h-.9a1.13,1.13,0,0,1-1.13-1.12V19.14A1.13,1.13,0,0,1,31.55,18h.9a1.12,1.12,0,0,1,1.13,1.12Z" id="id_102" style="fill: rgb(255, 251, 0);"></path><path d="M32,44.32a3.58,3.58,0,0,0,0,7.16A3.58,3.58,0,0,0,32,44.32Zm0,5.16a1.58,1.58,0,0,1,0-3.16A1.58,1.58,0,0,1,32,49.48Z" id="id_103" style="fill: rgb(255, 251, 0);"></path></g></svg>