<svg height="534pt" viewBox="-68 -16 534 534.66927" width="534pt" xmlns="http://www.w3.org/2000/svg"><path d="m382.820312 501.253906c6.207032 0 11.242188-5.035156 11.242188-11.242187v-428.8125c-.039062-33.785157-27.417969-61.1601565-61.199219-61.199219h-274.769531c-33.789062.0390625-61.160156 27.414062-61.199219 61.199219v428.8125c0 6.207031 5.027344 11.242187 11.238281 11.242187 6.207032 0 11.242188-5.035156 11.242188-11.242187v-30.394531h352.207031v30.394531c0 6.207031 5.027344 11.242187 11.238281 11.242187zm-324.726562-478.773437h274.769531c21.375.023437 38.691407 17.34375 38.71875 38.71875v88.246093c-5.15625-2.464843-10.804687-3.738281-16.515625-3.730468h-17.207031v-12.660156c-.023437-19.996094-16.226563-36.203126-36.21875-36.222657h-49.960937c-19.996094.019531-36.199219 16.226563-36.21875 36.222657v12.660156h-39.964844v-12.660156c-.027344-19.996094-16.230469-36.203126-36.222656-36.222657h-49.957032c-20 .019531-36.199218 16.226563-36.21875 36.222657v12.660156h-17.207031c-5.71875-.007813-11.359375 1.273437-16.515625 3.730468v-88.246093c.023438-21.375 17.34375-38.695313 38.71875-38.71875zm257.285156 123.234375h-77.4375v-12.660156c.003906-7.589844 6.152344-13.730469 13.738282-13.738282h49.960937c7.578125.007813 13.726563 6.148438 13.738281 13.738282zm-162.367187 0h-77.433594v-12.660156c.003906-7.589844 6.152344-13.730469 13.738281-13.738282h49.957032c7.582031.007813 13.730468 6.148438 13.738281 13.738282zm-133.636719 39.550781c-.140625-9.269531 7.242188-16.90625 16.515625-17.070313h319.175781c9.269532.164063 16.652344 7.800782 16.515625 17.070313v201.484375c-5.15625-2.464844-10.804687-3.738281-16.515625-3.734375h-319.175781c-5.71875-.003906-11.359375 1.273437-16.515625 3.734375zm0 251.871094v-14.570313c-.140625-9.269531 7.242188-16.902344 16.515625-17.070312h319.175781c9.269532.167968 16.652344 7.800781 16.515625 17.070312v14.570313zm0 0" id="id_101" style="fill: rgb(255, 255, 255);"></path></svg>