<svg width="272" height="309" viewBox="0 0 272 309" fill="none" xmlns="http://www.w3.org/2000/svg">
<rect x="98" y="133" width="10" height="92" fill="#017CB0"/>
<rect x="98" y="133" width="10" height="87" transform="rotate(-90 98 133)" fill="#017CB0"/>
<rect x="175" y="133" width="10" height="92" fill="#017CB0"/>
<rect width="10" height="57" transform="matrix(-1 0 0 1 65 177)" fill="#017CB0"/>
<path d="M98 96.5C98 72.4756 117.476 53 141.5 53C165.524 53 185 72.4756 185 96.5V112H98V96.5Z" fill="#C5924F"/>
<rect width="10.0944" height="57.8088" transform="matrix(-0.549577 -0.835443 -0.819713 0.572774 107.934 152.722)" fill="#017CB0"/>
<rect x="218" y="177" width="10" height="57" fill="#017CB0"/>
<rect width="10.0944" height="57.8088" transform="matrix(0.549577 -0.835443 0.819713 0.572774 175 152.722)" fill="#017CB0"/>
<path d="M126 179.5C126 170.387 133.387 163 142.5 163C151.613 163 159 170.387 159 179.5V223H126V179.5Z" fill="#017CB0"/>
<g filter="url(#filter0_d_5_6)">
<rect x="85" y="103" width="113" height="12" rx="6" fill="#9D7337"/>
</g>
<path d="M141 0L147.378 14.9118L163 21L147.378 27.0882L141 42L134.622 27.0882L119 21L134.622 14.9118L141 0Z" fill="#1C3876"/>
<path d="M98.1685 218H182.497L245 238V243.412L207.121 231.5L192.444 227.353L182.497 226H143.274H98.1685L89 227.353L76.4978 231.5L65.7349 235.5L45.5 243.412V238L56.0044 233.529L98.1685 218Z" fill="#BF8842"/>
<path d="M63.983 268.715H49.695L47.063 276H42.551L54.395 243.429H59.33L71.127 276H66.615L63.983 268.715ZM62.761 265.237L56.839 248.693L50.917 265.237H62.761ZM102.045 276H97.7679L80.5659 249.915V276H76.2889V243.194H80.5659L97.7679 269.232V243.194H102.045V276ZM129.499 243.241V246.719H120.569V276H116.292V246.719H107.315V243.241H129.499ZM138.947 243.241V263.968C138.947 266.882 139.652 269.044 141.062 270.454C142.503 271.864 144.493 272.569 147.031 272.569C149.537 272.569 151.496 271.864 152.906 270.454C154.347 269.044 155.068 266.882 155.068 263.968V243.241H159.345V263.921C159.345 266.647 158.796 268.95 157.7 270.83C156.603 272.679 155.115 274.057 153.235 274.966C151.386 275.875 149.302 276.329 146.984 276.329C144.665 276.329 142.566 275.875 140.686 274.966C138.837 274.057 137.364 272.679 136.268 270.83C135.202 268.95 134.67 266.647 134.67 263.921V243.241H138.947ZM185.843 268.715H171.555L168.923 276H164.411L176.255 243.429H181.19L192.987 276H188.475L185.843 268.715ZM184.621 265.237L178.699 248.693L172.777 265.237H184.621ZM183.305 236.144L173.294 241.502V238.306L183.305 232.431V236.144ZM215.398 276L207.596 262.605H202.426V276H198.149V243.241H208.724C211.2 243.241 213.283 243.664 214.975 244.51C216.699 245.356 217.983 246.5 218.829 247.941C219.675 249.382 220.098 251.027 220.098 252.876C220.098 255.132 219.44 257.122 218.124 258.845C216.84 260.568 214.897 261.712 212.296 262.276L220.521 276H215.398ZM202.426 259.174H208.724C211.043 259.174 212.782 258.61 213.941 257.482C215.101 256.323 215.68 254.787 215.68 252.876C215.68 250.933 215.101 249.429 213.941 248.364C212.813 247.299 211.074 246.766 208.724 246.766H202.426V259.174ZM231.021 243.241V276H226.744V243.241H231.021ZM253.162 276.329C250.123 276.329 247.35 275.624 244.843 274.214C242.337 272.773 240.347 270.783 238.874 268.245C237.433 265.676 236.712 262.793 236.712 259.597C236.712 256.401 237.433 253.534 238.874 250.996C240.347 248.427 242.337 246.437 244.843 245.027C247.35 243.586 250.123 242.865 253.162 242.865C256.233 242.865 259.022 243.586 261.528 245.027C264.035 246.437 266.009 248.411 267.45 250.949C268.892 253.487 269.612 256.37 269.612 259.597C269.612 262.824 268.892 265.707 267.45 268.245C266.009 270.783 264.035 272.773 261.528 274.214C259.022 275.624 256.233 276.329 253.162 276.329ZM253.162 272.616C255.45 272.616 257.502 272.083 259.319 271.018C261.168 269.953 262.609 268.433 263.643 266.459C264.709 264.485 265.241 262.198 265.241 259.597C265.241 256.965 264.709 254.678 263.643 252.735C262.609 250.761 261.184 249.241 259.366 248.176C257.549 247.111 255.481 246.578 253.162 246.578C250.844 246.578 248.776 247.111 246.958 248.176C245.141 249.241 243.7 250.761 242.634 252.735C241.6 254.678 241.083 256.965 241.083 259.597C241.083 262.198 241.6 264.485 242.634 266.459C243.7 268.433 245.141 269.953 246.958 271.018C248.807 272.083 250.875 272.616 253.162 272.616Z" fill="white"/>
<path d="M34.0057 237.818C33.7074 235.299 32.4976 233.344 30.3764 231.952C28.2552 230.56 25.6534 229.864 22.571 229.864C20.3172 229.864 18.3452 230.228 16.6548 230.957C14.9811 231.687 13.6719 232.689 12.7273 233.965C11.7992 235.241 11.3352 236.691 11.3352 238.315C11.3352 239.674 11.6584 240.843 12.3047 241.82C12.9676 242.781 13.8127 243.585 14.8402 244.232C15.8677 244.861 16.9448 245.383 18.0717 245.798C19.1986 246.195 20.2344 246.518 21.179 246.767L26.3494 248.159C27.6752 248.507 29.1501 248.988 30.7741 249.601C32.4148 250.214 33.9808 251.051 35.4723 252.112C36.9804 253.156 38.2232 254.498 39.201 256.138C40.1787 257.779 40.6676 259.793 40.6676 262.179C40.6676 264.93 39.9467 267.416 38.505 269.636C37.0798 271.857 34.9917 273.622 32.2408 274.931C29.5064 276.24 26.1837 276.895 22.2727 276.895C18.6269 276.895 15.4699 276.307 12.8018 275.13C10.1503 273.953 8.06226 272.313 6.53764 270.208C5.02959 268.103 4.17614 265.659 3.97727 262.875H10.3409C10.5066 264.797 11.1529 266.388 12.2798 267.648C13.4233 268.891 14.8651 269.819 16.6051 270.432C18.3617 271.028 20.2509 271.327 22.2727 271.327C24.6259 271.327 26.7389 270.946 28.6115 270.183C30.4841 269.404 31.9673 268.327 33.0611 266.952C34.1548 265.56 34.7017 263.936 34.7017 262.08C34.7017 260.389 34.2294 259.014 33.2848 257.953C32.3402 256.893 31.0973 256.031 29.5561 255.368C28.0149 254.705 26.3494 254.125 24.5597 253.628L18.2955 251.838C14.3182 250.695 11.1695 249.062 8.84943 246.941C6.52936 244.82 5.36932 242.044 5.36932 238.614C5.36932 235.763 6.13991 233.277 7.68111 231.156C9.23887 229.018 11.3269 227.361 13.9453 226.185C16.5803 224.991 19.5218 224.395 22.7699 224.395C26.0511 224.395 28.9678 224.983 31.5199 226.16C34.072 227.32 36.0938 228.911 37.5852 230.933C39.0933 232.954 39.8887 235.25 39.9716 237.818H34.0057Z" fill="white"/>
<path d="M49.29 292.72C49.29 291.04 49.63 289.57 50.31 288.31C50.99 287.03 51.92 286.04 53.1 285.34C54.3 284.64 55.64 284.29 57.12 284.29C58.4 284.29 59.59 284.59 60.69 285.19C61.79 285.77 62.63 286.54 63.21 287.5V278.8H65.97V301H63.21V297.91C62.67 298.89 61.87 299.7 60.81 300.34C59.75 300.96 58.51 301.27 57.09 301.27C55.63 301.27 54.3 300.91 53.1 300.19C51.92 299.47 50.99 298.46 50.31 297.16C49.63 295.86 49.29 294.38 49.29 292.72ZM63.21 292.75C63.21 291.51 62.96 290.43 62.46 289.51C61.96 288.59 61.28 287.89 60.42 287.41C59.58 286.91 58.65 286.66 57.63 286.66C56.61 286.66 55.68 286.9 54.84 287.38C54 287.86 53.33 288.56 52.83 289.48C52.33 290.4 52.08 291.48 52.08 292.72C52.08 293.98 52.33 295.08 52.83 296.02C53.33 296.94 54 297.65 54.84 298.15C55.68 298.63 56.61 298.87 57.63 298.87C58.65 298.87 59.58 298.63 60.42 298.15C61.28 297.65 61.96 296.94 62.46 296.02C62.96 295.08 63.21 293.99 63.21 292.75ZM77.7534 301.27C76.2134 301.27 74.8134 300.92 73.5534 300.22C72.3134 299.52 71.3334 298.53 70.6134 297.25C69.9134 295.95 69.5634 294.45 69.5634 292.75C69.5634 291.07 69.9234 289.59 70.6434 288.31C71.3834 287.01 72.3834 286.02 73.6434 285.34C74.9034 284.64 76.3134 284.29 77.8734 284.29C79.4334 284.29 80.8434 284.64 82.1034 285.34C83.3634 286.02 84.3534 287 85.0734 288.28C85.8134 289.56 86.1834 291.05 86.1834 292.75C86.1834 294.45 85.8034 295.95 85.0434 297.25C84.3034 298.53 83.2934 299.52 82.0134 300.22C80.7334 300.92 79.3134 301.27 77.7534 301.27ZM77.7534 298.87C78.7334 298.87 79.6534 298.64 80.5134 298.18C81.3734 297.72 82.0634 297.03 82.5834 296.11C83.1234 295.19 83.3934 294.07 83.3934 292.75C83.3934 291.43 83.1334 290.31 82.6134 289.39C82.0934 288.47 81.4134 287.79 80.5734 287.35C79.7334 286.89 78.8234 286.66 77.8434 286.66C76.8434 286.66 75.9234 286.89 75.0834 287.35C74.2634 287.79 73.6034 288.47 73.1034 289.39C72.6034 290.31 72.3534 291.43 72.3534 292.75C72.3534 294.09 72.5934 295.22 73.0734 296.14C73.5734 297.06 74.2334 297.75 75.0534 298.21C75.8734 298.65 76.7734 298.87 77.7534 298.87ZM95.5929 301.27C94.3329 301.27 93.2029 301.06 92.2029 300.64C91.2029 300.2 90.4129 299.6 89.8329 298.84C89.2529 298.06 88.9329 297.17 88.8729 296.17H91.6929C91.7729 296.99 92.1529 297.66 92.8329 298.18C93.5329 298.7 94.4429 298.96 95.5629 298.96C96.6029 298.96 97.4229 298.73 98.0229 298.27C98.6229 297.81 98.9229 297.23 98.9229 296.53C98.9229 295.81 98.6029 295.28 97.9629 294.94C97.3229 294.58 96.3329 294.23 94.9929 293.89C93.7729 293.57 92.7729 293.25 91.9929 292.93C91.2329 292.59 90.5729 292.1 90.0129 291.46C89.4729 290.8 89.2029 289.94 89.2029 288.88C89.2029 288.04 89.4529 287.27 89.9529 286.57C90.4529 285.87 91.1629 285.32 92.0829 284.92C93.0029 284.5 94.0529 284.29 95.2329 284.29C97.0529 284.29 98.5229 284.75 99.6429 285.67C100.763 286.59 101.363 287.85 101.443 289.45H98.7129C98.6529 288.59 98.3029 287.9 97.6629 287.38C97.0429 286.86 96.2029 286.6 95.1429 286.6C94.1629 286.6 93.3829 286.81 92.8029 287.23C92.2229 287.65 91.9329 288.2 91.9329 288.88C91.9329 289.42 92.1029 289.87 92.4429 290.23C92.8029 290.57 93.2429 290.85 93.7629 291.07C94.3029 291.27 95.0429 291.5 95.9829 291.76C97.1629 292.08 98.1229 292.4 98.8629 292.72C99.6029 293.02 100.233 293.48 100.753 294.1C101.293 294.72 101.573 295.53 101.593 296.53C101.593 297.43 101.343 298.24 100.843 298.96C100.343 299.68 99.6329 300.25 98.7129 300.67C97.8129 301.07 96.7729 301.27 95.5929 301.27ZM127.563 298.48L132.663 284.56H135.573L129.123 301H125.943L119.493 284.56H122.433L127.563 298.48ZM139.669 281.89C139.149 281.89 138.709 281.71 138.349 281.35C137.989 280.99 137.809 280.55 137.809 280.03C137.809 279.51 137.989 279.07 138.349 278.71C138.709 278.35 139.149 278.17 139.669 278.17C140.169 278.17 140.589 278.35 140.929 278.71C141.289 279.07 141.469 279.51 141.469 280.03C141.469 280.55 141.289 280.99 140.929 281.35C140.589 281.71 140.169 281.89 139.669 281.89ZM140.989 284.56V301H138.259V284.56H140.989ZM144.622 292.72C144.622 291.04 144.962 289.57 145.642 288.31C146.322 287.03 147.252 286.04 148.432 285.34C149.632 284.64 150.962 284.29 152.422 284.29C153.862 284.29 155.112 284.6 156.172 285.22C157.232 285.84 158.022 286.62 158.542 287.56V284.56H161.302V301H158.542V297.94C158.002 298.9 157.192 299.7 156.112 300.34C155.052 300.96 153.812 301.27 152.392 301.27C150.932 301.27 149.612 300.91 148.432 300.19C147.252 299.47 146.322 298.46 145.642 297.16C144.962 295.86 144.622 294.38 144.622 292.72ZM158.542 292.75C158.542 291.51 158.292 290.43 157.792 289.51C157.292 288.59 156.612 287.89 155.752 287.41C154.912 286.91 153.982 286.66 152.962 286.66C151.942 286.66 151.012 286.9 150.172 287.38C149.332 287.86 148.662 288.56 148.162 289.48C147.662 290.4 147.412 291.48 147.412 292.72C147.412 293.98 147.662 295.08 148.162 296.02C148.662 296.94 149.332 297.65 150.172 298.15C151.012 298.63 151.942 298.87 152.962 298.87C153.982 298.87 154.912 298.63 155.752 298.15C156.612 297.65 157.292 296.94 157.792 296.02C158.292 295.08 158.542 293.99 158.542 292.75ZM167.385 281.89C166.865 281.89 166.425 281.71 166.065 281.35C165.725 280.99 165.555 280.55 165.555 280.03C165.555 279.51 165.725 279.07 166.065 278.71C166.425 278.35 166.865 278.17 167.385 278.17C167.905 278.17 168.335 278.35 168.675 278.71C169.035 279.07 169.215 279.51 169.215 280.03C169.215 280.55 169.035 280.99 168.675 281.35C168.335 281.71 167.905 281.89 167.385 281.89ZM168.735 304.57C168.735 306.03 168.365 307.1 167.625 307.78C166.885 308.46 165.805 308.8 164.385 308.8H162.795V306.49H163.935C164.695 306.49 165.225 306.34 165.525 306.04C165.845 305.74 166.005 305.23 166.005 304.51V284.56H168.735V304.57ZM172.337 292.72C172.337 291.04 172.677 289.57 173.357 288.31C174.037 287.03 174.967 286.04 176.147 285.34C177.347 284.64 178.677 284.29 180.137 284.29C181.577 284.29 182.827 284.6 183.887 285.22C184.947 285.84 185.737 286.62 186.257 287.56V284.56H189.017V301H186.257V297.94C185.717 298.9 184.907 299.7 183.827 300.34C182.767 300.96 181.527 301.27 180.107 301.27C178.647 301.27 177.327 300.91 176.147 300.19C174.967 299.47 174.037 298.46 173.357 297.16C172.677 295.86 172.337 294.38 172.337 292.72ZM186.257 292.75C186.257 291.51 186.007 290.43 185.507 289.51C185.007 288.59 184.327 287.89 183.467 287.41C182.627 286.91 181.697 286.66 180.677 286.66C179.657 286.66 178.727 286.9 177.887 287.38C177.047 287.86 176.377 288.56 175.877 289.48C175.377 290.4 175.127 291.48 175.127 292.72C175.127 293.98 175.377 295.08 175.877 296.02C176.377 296.94 177.047 297.65 177.887 298.15C178.727 298.63 179.657 298.87 180.677 298.87C181.697 298.87 182.627 298.63 183.467 298.15C184.327 297.65 185.007 296.94 185.507 296.02C186.007 295.08 186.257 293.99 186.257 292.75ZM201.64 284.26C203.64 284.26 205.26 284.87 206.5 286.09C207.74 287.29 208.36 289.03 208.36 291.31V301H205.66V291.7C205.66 290.06 205.25 288.81 204.43 287.95C203.61 287.07 202.49 286.63 201.07 286.63C199.63 286.63 198.48 287.08 197.62 287.98C196.78 288.88 196.36 290.19 196.36 291.91V301H193.63V284.56H196.36V286.9C196.9 286.06 197.63 285.41 198.55 284.95C199.49 284.49 200.52 284.26 201.64 284.26ZM216.15 286.81V296.5C216.15 297.3 216.32 297.87 216.66 298.21C217 298.53 217.59 298.69 218.43 298.69H220.44V301H217.98C216.46 301 215.32 300.65 214.56 299.95C213.8 299.25 213.42 298.1 213.42 296.5V286.81H211.29V284.56H213.42V280.42H216.15V284.56H220.44V286.81H216.15ZM238.748 292.15C238.748 292.67 238.718 293.22 238.658 293.8H225.518C225.618 295.42 226.168 296.69 227.168 297.61C228.188 298.51 229.418 298.96 230.858 298.96C232.038 298.96 233.018 298.69 233.798 298.15C234.598 297.59 235.158 296.85 235.478 295.93H238.418C237.978 297.51 237.098 298.8 235.778 299.8C234.458 300.78 232.818 301.27 230.858 301.27C229.298 301.27 227.898 300.92 226.658 300.22C225.438 299.52 224.478 298.53 223.778 297.25C223.078 295.95 222.728 294.45 222.728 292.75C222.728 291.05 223.068 289.56 223.748 288.28C224.428 287 225.378 286.02 226.598 285.34C227.838 284.64 229.258 284.29 230.858 284.29C232.418 284.29 233.798 284.63 234.998 285.31C236.198 285.99 237.118 286.93 237.758 288.13C238.418 289.31 238.748 290.65 238.748 292.15ZM235.928 291.58C235.928 290.54 235.698 289.65 235.238 288.91C234.778 288.15 234.148 287.58 233.348 287.2C232.568 286.8 231.698 286.6 230.738 286.6C229.358 286.6 228.178 287.04 227.198 287.92C226.238 288.8 225.688 290.02 225.548 291.58H235.928ZM248.171 301.27C246.911 301.27 245.781 301.06 244.781 300.64C243.781 300.2 242.991 299.6 242.411 298.84C241.831 298.06 241.511 297.17 241.451 296.17H244.271C244.351 296.99 244.731 297.66 245.411 298.18C246.111 298.7 247.021 298.96 248.141 298.96C249.181 298.96 250.001 298.73 250.601 298.27C251.201 297.81 251.501 297.23 251.501 296.53C251.501 295.81 251.181 295.28 250.541 294.94C249.901 294.58 248.911 294.23 247.571 293.89C246.351 293.57 245.351 293.25 244.571 292.93C243.811 292.59 243.151 292.1 242.591 291.46C242.051 290.8 241.781 289.94 241.781 288.88C241.781 288.04 242.031 287.27 242.531 286.57C243.031 285.87 243.741 285.32 244.661 284.92C245.581 284.5 246.631 284.29 247.811 284.29C249.631 284.29 251.101 284.75 252.221 285.67C253.341 286.59 253.941 287.85 254.021 289.45H251.291C251.231 288.59 250.881 287.9 250.241 287.38C249.621 286.86 248.781 286.6 247.721 286.6C246.741 286.6 245.961 286.81 245.381 287.23C244.801 287.65 244.511 288.2 244.511 288.88C244.511 289.42 244.681 289.87 245.021 290.23C245.381 290.57 245.821 290.85 246.341 291.07C246.881 291.27 247.621 291.5 248.561 291.76C249.741 292.08 250.701 292.4 251.441 292.72C252.181 293.02 252.811 293.48 253.331 294.1C253.871 294.72 254.151 295.53 254.171 296.53C254.171 297.43 253.921 298.24 253.421 298.96C252.921 299.68 252.211 300.25 251.291 300.67C250.391 301.07 249.351 301.27 248.171 301.27Z" fill="white"/>
<defs>
<filter id="filter0_d_5_6" x="80" y="98" width="123" height="22" filterUnits="userSpaceOnUse" color-interpolation-filters="sRGB">
<feFlood flood-opacity="0" result="BackgroundImageFix"/>
<feColorMatrix in="SourceAlpha" type="matrix" values="0 0 0 0 0 0 0 0 0 0 0 0 0 0 0 0 0 0 127 0" result="hardAlpha"/>
<feMorphology radius="1" operator="dilate" in="SourceAlpha" result="effect1_dropShadow_5_6"/>
<feOffset/>
<feGaussianBlur stdDeviation="2"/>
<feComposite in2="hardAlpha" operator="out"/>
<feColorMatrix type="matrix" values="0 0 0 0 0 0 0 0 0 0 0 0 0 0 0 0 0 0 0.25 0"/>
<feBlend mode="normal" in2="BackgroundImageFix" result="effect1_dropShadow_5_6"/>
<feBlend mode="normal" in="SourceGraphic" in2="effect1_dropShadow_5_6" result="shape"/>
</filter>
</defs>
</svg>
